<svg xmlns="http://www.w3.org/2000/svg" width="17.625" height="19.187" viewBox="0 0 17.625 19.187">
  <defs>
    <style>
      .cls-1 {
        fill: #c0d2f9;
        fill-rule: evenodd;
      }
    </style>
  </defs>
  <path id="Analyzer" class="cls-1" d="M38.519,634.64h1.6v-16.8h-1.6v16.8Zm0-17.6h1.6v-1.6h-1.6v1.6Zm-3.2,17.6h1.6v-6.4h-1.6v6.4Zm0-7.205h1.6V625.84h-1.6v1.595Zm6.4,7.205h1.6v-13.6h-1.6v13.6Zm0-14.4h1.6v-1.6h-1.6v1.6Zm3.2,14.4h1.6v-4.8h-1.6v4.8Zm0-7.2v1.595h1.6V627.44h-1.6Zm-12.8,7.2h1.6v-12h-1.6v12Zm0-12.8h1.6v-1.6h-1.6v1.6Zm-3.2,12.8h1.6v-8h-1.6v8Zm0-8.795h1.6v-1.6h-1.6v1.6Z" transform="translate(-28.906 -615.438)"/>
</svg>
