<svg xmlns="http://www.w3.org/2000/svg" width="19" height="17.438" viewBox="0 0 19 17.438">
  <defs>
    <style>
      .cls-1 {
        fill: #c0d2f9;
        fill-rule: evenodd;
      }
    </style>
  </defs>
  <path id="Debt_manager" data-name="Debt manager" class="cls-1" d="M31.136,471.541a1.583,1.583,0,0,1,0-3.166h12.7v1.583h1.583v-3.166H31.136A3.145,3.145,0,0,0,28,469.958V480.25a3.938,3.938,0,0,0,3.93,3.958H47V471.541H31.136Zm14.279,11.084H31.929a2.353,2.353,0,0,1-2.346-2.375v-7.566a4.22,4.22,0,0,0,1.554.441H45.416v9.5Zm-4.781-3.167a1.584,1.584,0,1,0-1.585-1.583A1.583,1.583,0,0,0,40.635,479.458Z" transform="translate(-28 -466.781)"/>
</svg>
