<svg xmlns="http://www.w3.org/2000/svg" width="16" height="16.781" viewBox="0 0 16 16.781">
  <defs>
    <style>
      .cls-1 {
        fill: #c0d2f9;
        fill-rule: evenodd;
      }
    </style>
  </defs>
  <path id="Meter_finder" data-name="Meter finder" class="cls-1" d="M32.119,316.84a2.243,2.243,0,0,0-2.4,2.4v9.6a2.242,2.242,0,0,0,2.4,2.4v2.4h11.2v-2.4a2.243,2.243,0,0,0,2.4-2.4v-9.6a2.244,2.244,0,0,0-2.4-2.4m-9.6,2.978h8v0.8h-8v-0.8Zm8,12.222h-8v-0.8h8v0.8Zm2.4-3.2a0.8,0.8,0,0,1-.8.8h-11.2a0.8,0.8,0,0,1-.8-0.8v-9.6a0.8,0.8,0,0,1,.8-0.8h11.2a0.8,0.8,0,0,1,.8.8v9.6Zm-9.63,0h1.6v-1.6h-1.6v1.6Zm2.4,0h1.6v-1.6h-1.6v1.6Zm2.4,0h1.6v-1.6h-1.6v1.6Z" transform="translate(-29.719 -316.844)"/>
</svg>
