<svg xmlns="http://www.w3.org/2000/svg" width="19.188" height="21.593" viewBox="0 0 19.188 21.593">
  <defs>
    <style>
      .cls-1 {
        fill: #c0d2f9;
        fill-rule: evenodd;
      }
    </style>
  </defs>
  <path id="Payments_icon" data-name="Payments icon" class="cls-1" d="M28.12,427.24v4c0,2.737,4.127,4.8,9.6,4.8s9.6-2.063,9.6-4.8v-4m-1.631,0c0,1.511-3.421,3.2-8,3.2s-8-1.689-8-3.2m13.629,6.212V432.04h-1.6v1.931a18.919,18.919,0,0,1-3.2.451V432.84h-1.6v1.582a11.458,11.458,0,0,1-3.2-.451V432.04h-1.6v1.412c-1.6-.616-2.4-1.437-2.4-2.212v-1.275c1.6,1.27,4.582,2.075,8,2.075s6.4-.805,8-2.075v1.275C45.72,432.015,44.919,432.836,43.319,433.452Zm-5.6-19.011c-5.473,0-9.6,2.063-9.6,4.8v4c0,2.737,4.127,4.8,9.6,4.8s9.6-2.063,9.6-4.8v-4C47.321,416.5,43.191,414.441,37.72,414.441Zm-0.029,1.6c4.579,0,8,1.689,8,3.2s-3.421,3.2-8,3.2-8-1.689-8-3.2S33.111,416.04,37.69,416.04Zm5.629,9.413V424.04h-1.6v1.932a19.018,19.018,0,0,1-3.2.45V424.84h-1.6v1.582a11.5,11.5,0,0,1-3.2-.45V424.04h-1.6v1.413c-1.6-.617-2.4-1.438-2.4-2.213v-1.274c1.6,1.27,4.582,2.074,8,2.074s6.4-.8,8-2.074v1.274C45.72,424.015,44.919,424.836,43.319,425.453ZM37.69,418.44a7.021,7.021,0,0,1,3.886,1.126l1.152-1.151a8.5,8.5,0,0,0-5.038-1.575,8.324,8.324,0,0,0-5.042,1.571l1.148,1.148A6.779,6.779,0,0,1,37.69,418.44Z" transform="translate(-28.125 -414.438)"/>
</svg>
