<svg xmlns="http://www.w3.org/2000/svg" width="19.188" height="16.781" viewBox="0 0 19.188 16.781">
  <defs>
    <style>
      .cls-1 {
        fill: #c0d2f9;
        fill-rule: evenodd;
      }
    </style>
  </defs>
  <path id="Power_Distribution" data-name="Power Distribution" class="cls-1" d="M42.52,267.84h-9.6v6.4h9.6v-6.4Zm-1.6,4.8h-6.4v-3.2h6.4v3.2Zm-12.8,12h4.8v-4.8h-4.8v4.8Zm1.57-3.2h1.6v1.6h-1.6v-1.6Zm5.629,3.2h4.8v-4.8h-4.8v4.8Zm1.57-3.2h1.6v1.6h-1.6v-1.6Zm5.63-1.6v4.8h4.8v-4.8h-4.8Zm3.17,3.2h-1.6v-1.6h1.6v1.6Zm-14.37-5.6h5.6v1.6h1.6v-1.6h5.6v1.6h1.6v-3.2h-16v3.2h1.6v-1.6Z" transform="translate(-28.125 -267.844)"/>
</svg>
