<svg xmlns="http://www.w3.org/2000/svg" width="17.625" height="17.593" viewBox="0 0 17.625 17.593">
  <defs>
    <style>
      .cls-1 {
        fill: #c0d2f9;
        fill-rule: evenodd;
      }
    </style>
  </defs>
  <path id="Settings" class="cls-1" d="M32.92,817.44a4,4,0,1,0,4,4A4,4,0,0,0,32.92,817.44Zm0,6.4a2.4,2.4,0,1,1,2.4-2.4A2.4,2.4,0,0,1,32.92,823.84Zm0,3.2a4,4,0,1,0,4,4A4,4,0,0,0,32.92,827.041Zm0,6.4a2.4,2.4,0,1,1,2.4-2.4A2.4,2.4,0,0,1,32.92,833.44Zm9.6-8a4,4,0,1,0-4-4A4,4,0,0,0,42.52,825.44Zm0-6.4a2.4,2.4,0,1,1-2.4,2.4A2.4,2.4,0,0,1,42.52,819.04Zm0,8a4,4,0,1,0,4,4A4,4,0,0,0,42.52,827.041Zm0,6.4a2.4,2.4,0,1,1,2.4-2.4A2.4,2.4,0,0,1,42.52,833.44Z" transform="translate(-28.906 -817.438)"/>
</svg>
