<svg xmlns="http://www.w3.org/2000/svg" width="19" height="19" viewBox="0 0 19 19">
  <defs>
    <style>
      .cls-1 {
        fill: #c0d2f9;
        fill-rule: evenodd;
      }
    </style>
  </defs>
  <path id="Stakeholders" class="cls-1" d="M41.825,727.717a6.252,6.252,0,0,0,3.008-5.384,6.333,6.333,0,0,0-12.667,0,6.252,6.252,0,0,0,3.008,5.384A9.789,9.789,0,0,0,29,735h1.583a8.115,8.115,0,0,1,15.833,0H48A9.534,9.534,0,0,0,41.825,727.717Zm-8.075-5.384a4.75,4.75,0,1,1,4.75,4.75A4.764,4.764,0,0,1,33.75,722.333Z" transform="translate(-29 -716)"/>
</svg>
