<svg xmlns="http://www.w3.org/2000/svg" width="16" height="19.188" viewBox="0 0 16 19.188">
  <defs>
    <style>
      .cls-1 {
        fill: #c0d2f9;
        fill-rule: evenodd;
      }
    </style>
  </defs>
  <path id="Transformers" class="cls-1" d="M35.122,571.911a2.4,2.4,0,0,1,0-3.181l-1.205-1.068a4.044,4.044,0,0,0,0,5.317Zm4.2-1.591a1.6,1.6,0,1,0-2.405,1.4l-4.793,13.21h1.662l0.031-.084,3.906-3.484,3.9,3.482,0.031,0.086h1.664l-4.8-13.208A1.623,1.623,0,0,0,39.32,570.32Zm-4.332,11.313,0.75-2.044,0.77,0.688Zm5.46,0-4.115-3.671,1.385-3.781ZM31.32,570.32a5.642,5.642,0,0,1,1.418-3.541L31.5,565.748a6.756,6.756,0,0,0,0,9.144l1.236-1.03A5.643,5.643,0,0,1,31.32,570.32Zm10.2,2.658a4.04,4.04,0,0,0,0-5.316l-1.205,1.068a2.4,2.4,0,0,1,0,3.181Zm2.415-7.23L42.7,566.779a5.133,5.133,0,0,1,0,7.084l1.236,1.028A6.755,6.755,0,0,0,43.937,565.748Z" transform="translate(-29.719 -565.75)"/>
</svg>
