<svg xmlns="http://www.w3.org/2000/svg" width="10.03" height="9.97" viewBox="0 0 10.03 9.97">
  <defs>
    <style>
      .cls-1 {
        fill: #fff;
        fill-rule: evenodd;
      }
    </style>
  </defs>
  <path id="delete_icon" class="cls-1" d="M7510.29,1467.4h0l-3.04,3.08-3.3-3.25c-0.55-.55-1.12.03-1.4,0.31-0.53.54-.82,0.83-0.26,1.38l3.3,3.25-3.32,3.37c-0.29.29-.04,0.53,0.24,0.81,0.55,0.54.83,0.82,1.11,0.53l3.33-3.37,3.27,3.22a0.987,0.987,0,0,0,1.37-.28,1.362,1.362,0,0,0,.29-1.41l-3.27-3.22,3.04-3.09c0.6-.6.32-0.87-0.23-1.42-0.28-.27-0.53-0.52-1.13.09" transform="translate(-7501.97 -1467)"/>
</svg>
