<svg xmlns="http://www.w3.org/2000/svg" width="19.88" height="14.5" viewBox="0 0 19.88 14.5">
  <defs>
    <style>
      .cls-1 {
        fill: #fff;
        fill-rule: evenodd;
      }
    </style>
  </defs>
  <path id="Eye" class="cls-1" d="M7417.64,1472.56c-0.41-3.1-4.2-5.52-8.65-5.52h-0.1c-4.5.04-8.3,2.46-8.66,5.52l-1.23-.14c0.43-3.71,4.68-6.55,9.88-6.59h0.11c5.06,0,9.39,2.88,9.89,6.58Zm-8.75,7.79c-5.06,0-9.4-2.87-9.89-6.58l1.23-.15c0.41,3.11,4.21,5.52,8.66,5.52h0.1c4.5-.03,8.3-2.46,8.65-5.51l1.24,0.13c-0.43,3.72-4.68,6.55-9.88,6.59h-0.11Zm0.05-2.42a4.842,4.842,0,1,1,4.97-4.88,4.786,4.786,0,0,1-1.43,3.44,4.991,4.991,0,0,1-3.5,1.44h-0.04Zm0-8.47a3.631,3.631,0,1,0,0,7.26v0.61l0.03-.61a3.766,3.766,0,0,0,2.63-1.08,3.551,3.551,0,0,0,1.07-2.58A3.7,3.7,0,0,0,7408.94,1469.46Zm-2.49,3.65a2.463,2.463,0,0,1,2.47-2.44l0.01,1.21a1.242,1.242,0,0,0-1.24,1.22Z" transform="translate(-7399 -1465.84)"/>
</svg>
