<svg xmlns="http://www.w3.org/2000/svg" width="19.53" height="19" viewBox="0 0 19.53 19">
  <defs>
    <style>
      .cls-1 {
        fill: #fff;
        fill-rule: evenodd;
      }
    </style>
  </defs>
  <path id="Pencil" class="cls-1" d="M7466.45,1470.62l-5.27-5.13,0.44-.43a3.805,3.805,0,0,1,5.27,0,3.569,3.569,0,0,1,0,5.13Zm-3.46-5.08,3.41,3.32a2.39,2.39,0,0,0-.39-2.95A2.6,2.6,0,0,0,7462.99,1465.54Zm0.74,7.24-3.73-6.04,1.07-.63,3.73,6.04ZM7448.46,1483l1.85-6.76,1.2,0.31-1.3,4.75,4.89-1.26,0.32,1.17Zm7.97-2.67-1.47-3.65-3.75-1.43,7.72-7.58,0.88,0.85-6.39,6.27,2.5,0.96,0.98,2.42,5.18-5.01,0.88,0.85Z" transform="translate(-7448.47 -1464)"/>
</svg>
