<svg xmlns="http://www.w3.org/2000/svg" width="17.82" height="17.438" viewBox="0 0 17.82 17.438">
  <defs>
    <style>
      .cls-1 {
        fill: #051f33;
        fill-rule: evenodd;
      }
    </style>
  </defs>
  <path id="Analytics_AI" data-name="Analytics AI" class="cls-1" d="M6303.51,793.621h0.34a14.484,14.484,0,0,1,2.4-2.085v-1.043c-1.01-.656-2.05-1-3.05-1.7a17.593,17.593,0,0,0-2.44,2.393,16.56,16.56,0,0,0,1.74,2.433h1.01Zm-2.05,1.7h0a0.7,0.7,0,0,1,.34-0.7,10.126,10.126,0,0,1-1.73-2.047,7.121,7.121,0,0,0-1.01,3.745,6.33,6.33,0,0,0,1.35,4.44,26.312,26.312,0,0,1,1.39-4.44,3.2,3.2,0,0,1-.34-1h0Zm6.49-6.178h0a2.631,2.631,0,0,1,1.39.695,10.409,10.409,0,0,1,3.09-1.042,9.442,9.442,0,0,0-4.48-1,10.313,10.313,0,0,0-3.06.309c0.66,0.347,1.36,1.042,2.05,1.389,0.35,0,.66-0.347,1.01-0.347h0Zm2.74,8.918h0l0.7-.694a20.1,20.1,0,0,0-2.75-4.479h-0.69a1.309,1.309,0,0,1-1.01-.309c-0.69.657-1.39,1.043-2.05,1.7a1.272,1.272,0,0,1,.35,1.043v0.694a15.441,15.441,0,0,0,5.45,2.046h0Zm2.4,2.356h0V803.5a8.167,8.167,0,0,0,3.09-4.44,4.186,4.186,0,0,1-2.05.348,0.9,0.9,0,0,1-1.04,1h0Zm-2.75-1h0a17.11,17.11,0,0,1-5.79-2.394c-0.35,0-.7.348-1.04,0.348-0.31,0-.31,0-0.31-0.348a13.583,13.583,0,0,0-1.74,5.444,16.132,16.132,0,0,0,3.09,2.085,13.6,13.6,0,0,1,5.79-5.135h0Zm3.44-9.575h0c-1.35.347-2.74,0.656-4.09,1l0.31,0.347c0,0.348-.31.348-0.31,0.7a12.694,12.694,0,0,1,2.74,5.135,1.9,1.9,0,0,1,1.7,1.042,5.035,5.035,0,0,0,2.4-.347,2.124,2.124,0,0,0,.34-1.39,9.63,9.63,0,0,0-3.09-6.486h0Zm-2.39,10.579h0a11.835,11.835,0,0,0-5.49,4.478,4.834,4.834,0,0,0,2.05.309,14.413,14.413,0,0,0,3.78-.656c0-1.043.35-2.085,0.35-2.741a1.272,1.272,0,0,0-.35-1.043,0.335,0.335,0,0,0-.34-0.347h0Z" transform="translate(-6299.06 -787.781)"/>
</svg>
