<svg xmlns="http://www.w3.org/2000/svg" width="13.66" height="19" viewBox="0 0 13.66 19">
  <defs>
    <style>
      .cls-1 {
        fill: #051f33;
        fill-rule: evenodd;
      }
    </style>
  </defs>
  <path id="Curriculumn_-_Book" data-name="Curriculumn - Book" class="cls-1" d="M6313.83,605.821h0l-8.87-4.6c-1.05-.681-3.44.32-4.13,1.441a2.6,2.6,0,0,0-.35,1.041l0.35,10.651a1.285,1.285,0,0,1,.34.721c0.7,0,7.88,4.925,7.88,4.925h0.69a0.31,0.31,0,0,0,.31-0.32V608.664a0.764,0.764,0,0,0-.31-0.72l-7.56-4.6a3.74,3.74,0,0,1,1.04-.681,2.471,2.471,0,0,1,1.39-.36s7.18,4.244,7.48,4.244l0.35,0.36v10.652a0.759,0.759,0,0,0,.7.68,1.151,1.151,0,0,0,1-.68V606.182l-0.31-.361" transform="translate(-6300.47 -601)"/>
</svg>
