<svg xmlns="http://www.w3.org/2000/svg" width="20" height="15.594" viewBox="0 0 20 15.594">
  <defs>
    <style>
      .cls-1 {
        fill: #051f33;
        fill-rule: evenodd;
      }
    </style>
  </defs>
  <path id="Istitutions_-_Cap" data-name="Istitutions - Cap" class="cls-1" d="M6302.16,475.649h0c0.7,1.854,1.06,2.6,3.22,3.3,1.79,1.112,2.89,2.183,3.62,2.183s1.83-1.071,3.62-1.812c2.16-1.071,1.42-1.071,2.16-3.255l-5.78,2.884-6.84-3.3h0Zm16.56-5.107h0l-8.66-4.737a2.2,2.2,0,0,0-2.16,0l-8.63,4.737c-0.36.371-.36,0.741,0,1.483l8.63,4.737a2.2,2.2,0,0,0,2.16,0l5.45-3.3-5.78-1.441c-0.37,0-.37.329-0.73,0.329a1.652,1.652,0,0,1-1.83-1.441,1.775,1.775,0,0,1,1.83-1.072,2.767,2.767,0,0,1,1.83.7l6.1,2.183,1.79-.7c0.37-.742.37-1.112,0-1.483h0Zm-2.52,9.144h0c-0.37.371,1.1,0.742,1.46-.37,0.33-5.108-.73-6.591-0.73-6.591l-1.42.741s1.42,1.113.69,6.22h0Z" transform="translate(-6299 -465.531)"/>
</svg>
