<svg xmlns="http://www.w3.org/2000/svg" width="15.88" height="16.219" viewBox="0 0 15.88 16.219">
  <defs>
    <style>
      .cls-1 {
        fill: #051f33;
        fill-rule: evenodd;
      }
    </style>
  </defs>
  <path id="Integrations_-_link" data-name="Integrations - link" class="cls-1" d="M6306.82,661.938h0l-0.7,1.056a1.715,1.715,0,0,1-2.57,0,2.991,2.991,0,0,1-.69-1.38,2.05,2.05,0,0,1,.69-1.138l2.94-3.208c0.69-.366,1.8-1.462,2.53-0.731a0.74,0.74,0,0,0,1.43,0,0.641,0.641,0,0,0,0-1.056c-1.43-1.463-3.63-1.463-5.43.325l-2.9,3.249a3.234,3.234,0,0,0-1.06,2.559,4,4,0,0,0,1.06,2.843,3.9,3.9,0,0,0,2.53,1.1,4.152,4.152,0,0,0,2.9-1.1l0.74-1.057a1.124,1.124,0,0,0,0-1.462,1.233,1.233,0,0,0-1.47,0h0Zm9.06-11.494h0a3.467,3.467,0,0,0-5.06,0l-1.11.69a1.2,1.2,0,0,0,0,1.463,1.121,1.121,0,0,0,1.47,0l1.07-.731a1.327,1.327,0,0,1,2.16,0,1.885,1.885,0,0,1,.73,1.462,1.97,1.97,0,0,1-.73,1.056l-2.86,3.249c-1.84,1.422-2.16.691-2.53,0.325a1.23,1.23,0,0,0-1.47,0,1.1,1.1,0,0,0,0,1.462,3.118,3.118,0,0,0,2.16,1.056,3.232,3.232,0,0,0,2.9-1.421l3.27-3.249a3.917,3.917,0,0,0,1.06-2.478,4.138,4.138,0,0,0-1.06-2.884h0Z" transform="translate(-6301.06 -649.344)"/>
</svg>
