<svg xmlns="http://www.w3.org/2000/svg" width="16" height="16" viewBox="0 0 16 16">
  <defs>
    <style>
      .cls-1 {
        fill: #2198F3;
        fill-rule: evenodd;
      }
    </style>
  </defs>
  <path id="Manage_-_Wrench_copy_2" data-name="Manage - Wrench copy 2" class="cls-1" d="M6315.99,837.3a4.943,4.943,0,0,1-.51,1.709,4.735,4.735,0,0,1-4.25,2.611,5.051,5.051,0,0,1-1.27-.17l-6.08,6.074a1.534,1.534,0,0,1-1.12.47,1.6,1.6,0,0,1-1.16-.47c-0.15-.153-0.32-0.311-0.5-0.477a6.223,6.223,0,0,1-.52-0.52,3.152,3.152,0,0,1-.41-0.585,1.428,1.428,0,0,1-.17-0.68,1.5,1.5,0,0,1,.13-0.626,1.65,1.65,0,0,1,.34-0.515l6.11-6.094a5.611,5.611,0,0,1-.17-1.221,4.76,4.76,0,0,1,.38-1.866,4.976,4.976,0,0,1,1.03-1.53,4.9,4.9,0,0,1,1.52-1.025,4.618,4.618,0,0,1,1.86-.38,4.762,4.762,0,0,1,1.82.359,5.018,5.018,0,0,1,1.55,1.01l-4.44,1.62-0.43,2.362,1.85,1.53,4.44-1.586h0Zm-13.23,8.763a0.762,0.762,0,0,0,.56-0.234,0.794,0.794,0,0,0,.23-0.567,0.792,0.792,0,0,0-.79-0.8,0.767,0.767,0,0,0-.8.8,0.792,0.792,0,0,0,.22.567,0.753,0.753,0,0,0,.58.234" transform="translate(-6300 -832)"/>
</svg>
