<svg xmlns="http://www.w3.org/2000/svg" width="19.03" height="12.625" viewBox="0 0 19.03 12.625">
  <defs>
    <style>
      .cls-1 {
        fill: #051f33;
        fill-rule: evenodd;
      }
    </style>
  </defs>
  <path id="Resources_-_dial" data-name="Resources - dial" class="cls-1" d="M6305.47,705.693h0a1.816,1.816,0,0,0,.69,2.7,1.786,1.786,0,0,0,2.38-.655c0.69-1.388,4.76-11.6,4.41-11.6-0.34-.348-6.79,8.516-7.48,9.557h0Zm1.72-7.168h1a6.01,6.01,0,0,0,1.38-1.734,5.01,5.01,0,0,0-2.38-.347c-5.45,0-9.52,4.47-9.52,10.251v1.041a1.02,1.02,0,0,0,2.04,0V706.7c0-4.74,3.03-8.17,7.48-8.17h0Zm6.8,1.04h0c-0.35.656-.35,1.349-0.69,2.043a8.939,8.939,0,0,1,1.34,5.087v1.041a1.079,1.079,0,0,0,1.04,1h0a1.1,1.1,0,0,0,1.03-1V706.7a11.05,11.05,0,0,0-2.72-7.13h0Z" transform="translate(-6297.69 -696.125)"/>
</svg>
