<svg xmlns="http://www.w3.org/2000/svg" width="17" height="16.625" viewBox="0 0 17 16.625">
  <defs>
    <style>
      .cls-1 {
        fill: #051f33;
        fill-rule: evenodd;
      }
    </style>
  </defs>
  <path id="Settings_Rotary" data-name="Settings Rotary" class="cls-1" d="M6314.17,884.877a4.457,4.457,0,0,1,.54,1.278,7.69,7.69,0,0,0,1.11.136,3.9,3.9,0,0,1,1.09.208,0.189,0.189,0,0,1,.17.187v2.453a0.373,0.373,0,0,1-.32.222,4.692,4.692,0,0,1-.73.163c-0.28.041-.55,0.071-0.81,0.092s-0.44.037-.53,0.053a4.757,4.757,0,0,1-.5,1.216,17.176,17.176,0,0,0,1.29,1.632l0.07,0.157a1.087,1.087,0,0,1-.3.4q-0.285.319-.66,0.684c-0.25.241-.49,0.459-0.71,0.649a1.109,1.109,0,0,1-.44.285c-0.01,0-.1-0.066-0.28-0.192s-0.36-.271-0.57-0.427-0.41-.3-0.6-0.447-0.31-.226-0.36-0.255a5.719,5.719,0,0,1-.62.287c-0.21.079-.43,0.146-0.64,0.2-0.01.085-.03,0.254-0.06,0.515s-0.06.523-.1,0.79a5.9,5.9,0,0,1-.15.721,0.346,0.346,0,0,1-.22.323h-2.53a0.213,0.213,0,0,1-.21-0.175,6.129,6.129,0,0,1-.2-1.071c-0.04-.373-0.07-0.73-0.12-1.073a5.661,5.661,0,0,1-1.24-.519c-0.3.217-.59,0.424-0.87,0.628s-0.57.424-.84,0.651l-0.13.042a1.222,1.222,0,0,1-.4-0.285q-0.33-.287-0.69-0.649c-0.23-.244-0.45-0.471-0.65-0.684a1.135,1.135,0,0,1-.29-0.4,2.2,2.2,0,0,1,.17-0.276c0.11-.169.25-0.356,0.4-0.556s0.3-.395.45-0.578,0.24-.3.28-0.36a5.03,5.03,0,0,1-.54-1.277,8.353,8.353,0,0,0-1.12-.134,3.835,3.835,0,0,1-1.07-.209,0.191,0.191,0,0,1-.17-0.189v-2.452a0.369,0.369,0,0,1,.32-0.222,5.149,5.149,0,0,1,.73-0.161c0.28-.041.54-0.073,0.8-0.093s0.42-.039.51-0.055a6.034,6.034,0,0,1,.52-1.213,16.715,16.715,0,0,0-1.28-1.633l-0.08-.154a1.084,1.084,0,0,1,.3-0.4c0.2-.21.42-0.438,0.67-0.681s0.48-.456.71-0.648a1.229,1.229,0,0,1,.43-0.288,2.11,2.11,0,0,1,.28.193c0.17,0.128.37,0.271,0.58,0.426s0.42,0.306.61,0.446,0.3,0.229.34,0.255a4.658,4.658,0,0,1,.63-0.276c0.21-.071.42-0.142,0.64-0.211a5.064,5.064,0,0,1,.04-0.512c0.02-.254.05-0.514,0.09-0.777a4.522,4.522,0,0,1,.17-0.719,0.354,0.354,0,0,1,.23-0.321h2.53a0.209,0.209,0,0,1,.2.156,7.1,7.1,0,0,1,.18,1.071q0.06,0.563.15,1.1a6.491,6.491,0,0,1,.64.195,4.59,4.59,0,0,1,.6.292c0.06-.039.18-0.133,0.36-0.276s0.38-.291.6-0.447c0.2-.154.39-0.293,0.56-0.415a0.981,0.981,0,0,1,.31-0.182,1.259,1.259,0,0,1,.4.288c0.22,0.192.45,0.407,0.7,0.648s0.46,0.47.65,0.681a1,1,0,0,1,.29.4,1.2,1.2,0,0,1-.18.3c-0.13.169-.26,0.354-0.42,0.556s-0.3.393-.45,0.578-0.23.295-.26,0.336m-5.59,5.519a2.421,2.421,0,0,0,.99-0.2,2.559,2.559,0,0,0,.81-0.544,2.844,2.844,0,0,0,.54-0.8,2.292,2.292,0,0,0,.21-0.966,2.232,2.232,0,0,0-.21-0.957,2.943,2.943,0,0,0-.54-0.79,2.487,2.487,0,0,0-.81-0.535,2.568,2.568,0,0,0-.99-0.192,2.638,2.638,0,0,0-1,.192,2.54,2.54,0,0,0-1.37,1.325,2.381,2.381,0,0,0-.2.957,2.446,2.446,0,0,0,.2.966,2.355,2.355,0,0,0,.55.8,2.5,2.5,0,0,0,.82.544,2.468,2.468,0,0,0,1,.2" transform="translate(-6300.06 -879.594)"/>
</svg>
