<svg xmlns="http://www.w3.org/2000/svg" width="19" height="16.906" viewBox="0 0 19 16.906">
  <defs>
    <style>
      .cls-1 {
        fill: #2198F3;
        fill-rule: evenodd;
      }
    </style>
  </defs>
  <path id="Store_-_Kart" data-name="Store - Kart" class="cls-1" d="M6316.23,558.258a0.717,0.717,0,0,1,.59.3,0.741,0.741,0,0,1,.17.646l-1.12,6.371a0.851,0.851,0,0,1-.27.462,0.731,0.731,0,0,1-.51.184h-11.18l0.36,1.852a0.553,0.553,0,0,0,.18.293,0.463,0.463,0,0,0,.31.117h8.83a0.368,0.368,0,0,1,.28.127,0.425,0.425,0,0,1,.12.305v0.859a0.419,0.419,0,0,1-.11.292,0.406,0.406,0,0,1-.29.113h-9.49a1.918,1.918,0,0,1-.37-0.036,1.815,1.815,0,0,1-.37-0.1,0.362,0.362,0,0,1-.14-0.143,1.837,1.837,0,0,1-.16-0.269,1.741,1.741,0,0,1-.13-0.3,1.1,1.1,0,0,1-.07-0.234l-2.22-11.2a0.508,0.508,0,0,0-.18-0.283,0.5,0.5,0,0,0-.31-0.113h-1.75a0.365,0.365,0,0,1-.4-0.427v-0.841a0.366,0.366,0,0,1,.4-0.427h2.38a2.045,2.045,0,0,1,.4.045c0.14,0.029.27,0.058,0.37,0.085a0.734,0.734,0,0,1,.14.162,1.2,1.2,0,0,1,.16.259,1.87,1.87,0,0,1,.13.288c0.03,0.1.06,0.18,0.07,0.239l0.28,1.377h13.9v0h0Zm-12.23,13.2a1.256,1.256,0,0,1,.35-0.9,1.067,1.067,0,0,1,.83-0.382,1.123,1.123,0,0,1,.85.382,1.251,1.251,0,0,1,.35.9,1.225,1.225,0,0,1-.35.89,1.118,1.118,0,0,1-.85.377,1.077,1.077,0,0,1-.83-0.377,1.23,1.23,0,0,1-.35-0.89m6.72,0a1.29,1.29,0,0,1,.34-0.9,1.1,1.1,0,0,1,.84-0.382,1.082,1.082,0,0,1,.83.382,1.251,1.251,0,0,1,.35.9,1.225,1.225,0,0,1-.35.89,1.062,1.062,0,0,1-.83.377,1.092,1.092,0,0,1-.83-0.377,1.23,1.23,0,0,1-.35-0.89" transform="translate(-6298 -555.813)"/>
</svg>
