<svg xmlns="http://www.w3.org/2000/svg" width="19" height="13" viewBox="0 0 19 13">
  <defs>
    <style>
      .cls-1 {
        fill: #051f33;
        fill-rule: evenodd;
      }
    </style>
  </defs>
  <path id="Uploads_-_Cloud" data-name="Uploads - Cloud" class="cls-1" d="M6313.56,423.487h0a1.155,1.155,0,0,0-.99.357,4.809,4.809,0,0,0-4.74-3.845,5.3,5.3,0,0,0-5.09,5.232v0.713h-0.34a3.459,3.459,0,0,0-3.4,3.489,3.767,3.767,0,0,0,3.4,3.567h4.74v-3.885h-2.03l3.41-4.558,3.36,4.558h-2.03V433h3.71a4.7,4.7,0,0,0,4.44-4.955,4.6,4.6,0,0,0-4.44-4.558" transform="translate(-6299 -420)"/>
</svg>
