<svg xmlns="http://www.w3.org/2000/svg" width="17.44" height="14.75" viewBox="0 0 17.44 14.75">
  <defs>
    <style>
      .cls-1 {
        fill: #2198F3;
        fill-rule: evenodd;
      }
    </style>
  </defs>
  <path id="User_-_card" data-name="User - card" class="cls-1" d="M4785.58,513.259h-13.72a1.588,1.588,0,0,0-1.86,1.625v11.157a1.812,1.812,0,0,0,1.86,1.958h13.72a2.024,2.024,0,0,0,1.86-1.958V514.884a1.76,1.76,0,0,0-1.86-1.625h0Zm0,12.782h-13.72V514.884h13.72v11.157h0Zm-7.78-3.584h-4.39v1.626h4.39v-1.626h0Zm0-2.622h-4.39v1.625h4.39v-1.625h0Zm0-2.956h-4.39v1.662h4.39v-1.662h0Zm5.88,5.874h0s-1.23-.3-1.23-0.961c0-1,.95-1.293.95-2.955,0-.961-0.32-1.958-1.59-1.958-1.23,0-1.54,1-1.54,1.958,0,1.662.95,1.958,0.95,2.955,0,0.665-1.55.961-1.55,0.961v1.33H4784s0-1.33-.32-1.33h0Z" transform="translate(-4770 -513.25)"/>
</svg>
