<svg xmlns="http://www.w3.org/2000/svg" width="20" height="31.97" viewBox="0 0 20 31.97">
  <defs>
    <style>
      .cls-1 {
        fill: #2198f3;
        fill-rule: evenodd;
      }
    </style>
  </defs>
  <path id="Bulb" class="cls-1" d="M790.855,2168.37l-1.786-.9,2.532-4.9a8,8,0,1,0-11.315,0l0.115,0.12,2.405,4.78-1.788.9-2.261-4.5a10,10,0,1,1,14.374,0Zm-8.79,3.51-0.242-1.99,8-.97,0.238,1.99Zm0,3-0.242-1.99,8-.97,0.238,1.99Zm3.855,4.03a3,3,0,0,1-3-3h2a1,1,0,0,0,2,0h2A3,3,0,0,1,785.92,2178.91Zm-3.976-22h-2a6.014,6.014,0,0,1,6-6v2A4.008,4.008,0,0,0,781.944,2156.91Z" transform="translate(-775.938 -2146.94)"/>
</svg>
