<svg xmlns="http://www.w3.org/2000/svg" width="24" height="32" viewBox="0 0 24 32">
  <defs>
    <style>
      .cls-1 {
        fill: #2198f3;
        fill-rule: evenodd;
      }
    </style>
  </defs>
  <path id="Clipboard_text" data-name="Clipboard text" class="cls-1" d="M15163,2349h-24v-28h4v2h-2v24h20v-24h-2.1v-2h4.1v28Zm-6-23.99h-12V2319h3.2a2.96,2.96,0,0,1,5.6,0h3.2v6.01Zm-10-2h8V2321h-3v-1a1.037,1.037,0,0,0-1-1,0.972,0.972,0,0,0-1,1v1h-3v2.01Zm10,11.99h-12v-2h12v2Zm0,4h-12v-2h12v2Zm0,4h-12v-2h12v2Zm-7-12h-5v-2h5v2Z" transform="translate(-15139 -2317)"/>
</svg>
