<svg xmlns="http://www.w3.org/2000/svg" width="32.094" height="31.69" viewBox="0 0 32.094 31.69">
  <defs>
    <style>
      .cls-1 {
        fill: #2198f3;
        fill-rule: evenodd;
      }
    </style>
  </defs>
  <path id="Clock" class="cls-1" d="M1014.32,2170.5l-7.38-7.15v-10.43h2v9.58l6.77,6.57Zm-6.3,8.41a16.028,16.028,0,0,1-11.337-4.67l1.414-1.42a14.051,14.051,0,0,0,17.623,1.79l1.1,1.66A15.871,15.871,0,0,1,1008.02,2178.91Zm13.33-7.16-1.67-1.11a14.032,14.032,0,0,0-1.78-17.62l1.41-1.41A16.045,16.045,0,0,1,1021.35,2171.75Zm2.65-8.81h-2a14.109,14.109,0,0,0-11.31-13.74l0.4-1.96A16.111,16.111,0,0,1,1024,2162.94Zm-16.11,15.98a16,16,0,0,1-3.2-31.68l0.4,1.96a14,14,0,0,0,2.8,27.72v2Z" transform="translate(-991.906 -2147.25)"/>
</svg>
