<svg xmlns="http://www.w3.org/2000/svg" width="17.75" height="31.28" viewBox="0 0 17.75 31.28">
  <defs>
    <style>
      .cls-1 {
        fill: #2198f3;
        fill-rule: evenodd;
      }
    </style>
  </defs>
  <path id="Compass_tool" data-name="Compass tool" class="cls-1" d="M563.909,2162.9a5,5,0,1,1,5-5A5,5,0,0,1,563.909,2162.9Zm0-8a3,3,0,1,0,3,3A3.007,3.007,0,0,0,563.909,2154.9Zm0.277,17.14a10.908,10.908,0,0,1-5.656-1.58l1.031-1.71a9.014,9.014,0,0,0,12.354-3.07l1.713,1.04A11.014,11.014,0,0,1,564.186,2172.04Zm0.722-21.14h-1.969v-4h1.969v4Zm-7.1,27.28-1.921-.56,4.064-14,1.919,0.56Zm12.142,0-4.062-14,1.92-.56,4.062,14Z" transform="translate(-555.875 -2146.91)"/>
</svg>
