<svg xmlns="http://www.w3.org/2000/svg" width="23.972" height="32" viewBox="0 0 23.972 32">
  <defs>
    <style>
      .cls-1 {
        fill: #2198f3;
        fill-rule: evenodd;
      }
    </style>
  </defs>
  <path id="Flag" class="cls-1" d="M1000.43,1937.48h-1.994v-32h1.994v32Zm7.19-10.08a11.392,11.392,0,0,1-4.59-1l0.8-1.83c3.33,1.45,5.75.72,8.31-.05,2.34-.7,4.96-1.49,8.28-0.47v-13.9c-3.02-1.11-5.3-.43-7.71.29-2.66.8-5.68,1.71-9.68-.04l0.8-1.83c3.33,1.45,5.75.72,8.31-.05,2.66-.8,5.68-1.7,9.68.04l0.6,0.27v18.18l-1.4-.61c-3.33-1.45-5.74-.73-8.31.04A17.311,17.311,0,0,1,1007.62,1927.4Z" transform="translate(-998.438 -1905.47)"/>
</svg>
