<svg xmlns="http://www.w3.org/2000/svg" width="15.97" height="32" viewBox="0 0 15.97 32">
  <defs>
    <style>
      .cls-1 {
        fill: #2198f3;
        fill-rule: evenodd;
      }
    </style>
  </defs>
  <path id="Man_Figure" data-name="Man Figure" class="cls-1" d="M1235.08,2034a4,4,0,1,1,4-4A4,4,0,0,1,1235.08,2034Zm0-6a2,2,0,1,0,2,2A2,2,0,0,0,1235.08,2028Zm-6,19.06-2-.12,0.53-9.42,3.82-3.28,1.3,1.52-3.18,2.72Zm11.99,0-0.47-8.58-3.17-2.72,1.3-1.52,3.82,3.28,0.52,9.42Zm-3.09,10.94h-5.8l-1.1-10.9V2041h2v6l0.9,9h2.19l0.91-9.1V2041h2v6Z" transform="translate(-1227.09 -2026)"/>
</svg>
