<svg xmlns="http://www.w3.org/2000/svg" width="26" height="32" viewBox="0 0 26 32">
  <defs>
    <style>
      .cls-1 {
        fill: #2198f3;
        fill-rule: evenodd;
      }
    </style>
  </defs>
  <path id="Shield" class="cls-1" d="M1217.94,2167.83m24,0-23,0h-2v-13h2v13Zm24,0h-2v-13h2v13Zm-11.75,10h-2.5l-9.37-5c-2.21-1.33-2.38-2.78-2.38-5h2c0,2.03.13,2.54,1.5,3.33l0.01,0.01,8.74,4.66h1.5l8.76-4.67c1.37-.79,1.49-1.3,1.49-3.33h2c0,2.22-.16,3.67-2.38,5l-0.14.08Zm5.75-14h-14v-2h14v2Zm0,4h-14v-2h14v2Zm-7-8h-7v-2h7v2Zm13-7h-7a7,7,0,0,0-12,0h-7v-2h7a5,5,0,0,0,5-5h2a5.008,5.008,0,0,0,5,5h7v2Z" transform="translate(-1216.94 -2145.84)"/>
</svg>
