<svg xmlns="http://www.w3.org/2000/svg" width="32" height="31.75" viewBox="0 0 32 31.75">
  <defs>
    <style>
      .cls-1 {
        fill: #2198f3;
        fill-rule: evenodd;
      }
    </style>
  </defs>
  <path id="Tools" class="cls-1" d="M1213.3,1912.39h0a2.956,2.956,0,0,1-2.12-.88l-1.42-1.41,4.25-4.24,1.41,1.41A3,3,0,0,1,1213.3,1912.39Zm-0.71-2.29a0.99,0.99,0,0,0,.71.29h0a0.99,0.99,0,0,0,1-1,0.967,0.967,0,0,0-.29-0.7h0Zm7.76,7.53-6.33-6.1,1.39-1.44,6.33,6.1Zm15.25,15.53-5.73-6.01,1.41-1.41,5.74,6Zm0.71,4.28a4.949,4.949,0,0,1-3.52-1.45l-6.36-6.63,1.42-1.41,6.35,6.62a3,3,0,1,0,4.23-4.25l-6.34-6.61,1.41-1.42,6.34,6.61A5,5,0,0,1,1236.31,1937.44Zm-3.49-16.56h-0.01a7,7,0,0,1-4.94-11.95l1.83-1.83,1.41,1.41-1.83,1.83a4.985,4.985,0,0,0,0,7.07,4.939,4.939,0,0,0,3.53,1.47h0.01a4.939,4.939,0,0,0,3.53-1.47l1.83-1.83,1.41,1.42-1.83,1.83A6.953,6.953,0,0,1,1232.82,1920.88Zm6.77-3.88-2.12-2.12-0.71.7a3.932,3.932,0,0,1-2.82,1.18h-0.01a4,4,0,0,1-2.82-6.83l0.71-.71-2.12-2.12,1.41-1.42,3.53,3.54-2.12,2.12a2.016,2.016,0,0,0,0,2.83,1.989,1.989,0,0,0,1.42.59h0a1.983,1.983,0,0,0,1.41-.59l2.12-2.12,3.54,3.53Zm-24.26,16.36h-2v-2h2v2Zm11.1-9.74-3.97-3.92,1.41-1.43,3.97,3.93Zm-12.13,13.77a5,5,0,0,1-3.54-8.53l0.12-.11,10.35-7.51,1.18,1.62-10.28,7.46a2.995,2.995,0,0,0,.05,4.19,3.063,3.063,0,0,0,4.19.05l7.47-10.27,1.61,1.17-7.61,10.47A4.994,4.994,0,0,1,1214.3,1937.39Z" transform="translate(-1209.31 -1905.69)"/>
</svg>
