<svg xmlns="http://www.w3.org/2000/svg" width="32" height="32" viewBox="0 0 32 32">
  <defs>
    <style>
      .cls-1 {
        fill: #4dffba;
        fill-rule: evenodd;
      }
    </style>
  </defs>
  <path id="Unlinked" class="cls-1" d="M607.514,271.171m11.313,11.314,0.707,0.707-1.414-1.414,3.829-3.828a7,7,0,0,0-9.9-9.9l-3.829,3.828-1.414-1.414,3.829-3.828a9,9,0,0,1,12.728,12.728Zm-7.048,5.635-11.313-11.314M603,296a9,9,0,0,1-6.363-15.36l3.829-3.83,1.414,1.414-3.829,3.83a7,7,0,0,0,9.9,9.9l3.829-3.83,1.414,1.414-3.829,3.83A8.969,8.969,0,0,1,603,296Zm3.293-18.29-8-8,1.414-1.414,8,8Zm14,14-8-8,1.414-1.414,8,8Z" transform="translate(-594 -264)"/>
</svg>
