<svg xmlns="http://www.w3.org/2000/svg" viewBox="0 0 27.02 26.27"><defs><style>.cls-1{fill:#2198F3;fill-rule:evenodd;}</style></defs><title>Asset 1</title><g id="Layer_2" data-name="Layer 2"><g id="Layer_1-2" data-name="Layer 1"><path class="cls-1" d="M8,0H4C1.7,0,0,.72,0,3.15V7.2a3.84,3.84,0,0,0,4,4H8c2.42,0,3.22-1.62,3.22-4V3.15C11.18.72,10.38,0,8,0ZM23,0H19.05c-2.32,0-3.13.72-3.13,3.15V7.2c0,2.34.81,4,3.13,4H23a3.79,3.79,0,0,0,4-4V3.15C27,.72,25.41,0,23,0ZM8,15.12H4a3.84,3.84,0,0,0-4,4v4c0,2.43,1.7,3.23,4,3.23H8c2.42,0,3.22-.8,3.22-3.23v-4c0-2.34-.8-4-3.22-4Zm15,0H19.05c-2.32,0-3.13,1.62-3.13,4v4c0,2.43.81,3.23,3.13,3.23H23c2.42,0,4-.8,4-3.23v-4a3.79,3.79,0,0,0-4-4Z"/></g></g></svg>